<svg data-v-fde0c5aa="" xmlns="http://www.w3.org/2000/svg" viewBox="0 0 300 300" class="font"><!----><defs data-v-fde0c5aa=""><!----></defs><rect data-v-fde0c5aa="" fill="transparent" x="0" y="0" width="300px" height="300px" class="logo-background-square"></rect><defs data-v-fde0c5aa=""><linearGradient data-v-fde0c5aa="" gradientTransform="rotate(25)" id="71e0fa50-cf2e-4d71-8d04-dce7a591ded6" x1="0%" y1="0%" x2="100%" y2="0%"><stop data-v-fde0c5aa="" offset="0%" stop-color="#410FF8" stop-opacity="1"></stop><stop data-v-fde0c5aa="" offset="100%" stop-color="#410FF8" stop-opacity="1"></stop></linearGradient></defs><g data-v-fde0c5aa="" id="941b89d1-d92e-4c2d-8a70-abb1382af033" fill="url(#71e0fa50-cf2e-4d71-8d04-dce7a591ded6)" transform="matrix(2.6442308662205796,0,0,2.6442308662205796,39.62980767715302,124.21379069278024)"><path d="M2.59 9.80L4.33 5.42L6.05 9.80ZM8.50 13.30L4.33 3.12L0.14 13.30L1.20 13.30L2.23 10.71L6.41 10.71L7.43 13.30ZM10.95 5.46C10.95 5.28 10.89 5.13 10.77 5.01C10.64 4.89 10.50 4.83 10.32 4.83C10.14 4.83 9.99 4.89 9.87 5.01C9.75 5.13 9.69 5.28 9.69 5.46C9.69 5.64 9.75 5.79 9.87 5.91C9.99 6.03 10.14 6.09 10.32 6.09C10.50 6.09 10.64 6.03 10.77 5.91C10.89 5.79 10.95 5.64 10.95 5.46ZM10.81 14.48L10.81 7.14L9.83 7.14L9.83 14.49C9.83 15.17 9.63 15.59 9.23 15.75C9.07 15.82 8.90 15.83 8.73 15.79C8.56 15.74 8.41 15.67 8.29 15.55L8.29 16.49C8.47 16.61 8.71 16.68 9.00 16.70C9.29 16.72 9.57 16.66 9.84 16.52C10.10 16.38 10.33 16.15 10.52 15.83C10.71 15.51 10.81 15.05 10.81 14.48ZM19.00 10.08C19.00 9.23 18.67 8.50 18.03 7.88C17.39 7.28 16.64 6.97 15.78 6.97C14.89 6.97 14.13 7.29 13.50 7.92C12.87 8.55 12.56 9.31 12.56 10.19C12.56 11.08 12.87 11.84 13.50 12.46C13.80 12.75 14.14 12.98 14.53 13.15C14.91 13.31 15.38 13.40 15.93 13.40C16.47 13.40 17.01 13.23 17.54 12.89C18.06 12.55 18.46 12.08 18.72 11.49L17.60 11.49C17.38 11.78 17.12 12.01 16.79 12.17C16.47 12.34 16.13 12.42 15.78 12.42C15.25 12.42 14.78 12.25 14.35 11.90C13.93 11.56 13.67 11.13 13.58 10.60L19.00 10.60ZM17.96 9.76L13.59 9.76C13.65 9.50 13.75 9.26 13.89 9.04C14.35 8.31 14.98 7.95 15.78 7.95C16.30 7.95 16.77 8.12 17.17 8.46C17.59 8.80 17.85 9.23 17.96 9.76ZM26.63 10.08C26.63 9.23 26.30 8.50 25.66 7.88C25.02 7.28 24.27 6.97 23.41 6.97C22.52 6.97 21.76 7.29 21.13 7.92C20.50 8.55 20.19 9.31 20.19 10.19C20.19 11.08 20.50 11.84 21.13 12.46C21.43 12.75 21.77 12.98 22.16 13.15C22.54 13.31 23.01 13.40 23.55 13.40C24.10 13.40 24.64 13.23 25.16 12.89C25.69 12.55 26.09 12.08 26.35 11.49L25.23 11.49C25.01 11.78 24.75 12.01 24.42 12.17C24.10 12.34 23.76 12.42 23.41 12.42C22.88 12.42 22.41 12.25 21.98 11.90C21.56 11.56 21.30 11.13 21.21 10.60L26.63 10.60ZM25.59 9.76L21.22 9.76C21.28 9.50 21.38 9.26 21.52 9.04C21.98 8.31 22.61 7.95 23.41 7.95C23.93 7.95 24.40 8.12 24.80 8.46C25.22 8.80 25.48 9.23 25.59 9.76ZM27.47 8.05L29.01 8.05L29.01 13.30L29.99 13.30L29.99 8.05L31.51 8.05L31.51 7.14L29.99 7.14L29.99 4.75L29.01 4.75L29.01 7.14L27.47 7.14ZM35.85 4.66L38.16 4.66L38.16 13.27L39.14 13.27L39.14 4.66L41.45 4.66L41.45 3.75L39.14 3.75L38.16 3.75L35.85 3.75ZM47.24 10.08C47.24 9.23 46.91 8.50 46.26 7.88C45.63 7.28 44.88 6.97 44.02 6.97C43.13 6.97 42.37 7.29 41.74 7.92C41.11 8.55 40.80 9.31 40.80 10.19C40.80 11.08 41.11 11.84 41.74 12.46C42.03 12.75 42.38 12.98 42.76 13.15C43.15 13.31 43.62 13.40 44.16 13.40C44.71 13.40 45.25 13.23 45.77 12.89C46.30 12.55 46.69 12.08 46.96 11.49L45.84 11.49C45.62 11.78 45.35 12.01 45.03 12.17C44.71 12.34 44.37 12.42 44.02 12.42C43.49 12.42 43.01 12.25 42.59 11.90C42.17 11.56 41.91 11.13 41.82 10.60L47.24 10.60ZM46.20 9.76L41.83 9.76C41.89 9.50 41.99 9.26 42.13 9.04C42.59 8.31 43.22 7.95 44.02 7.95C44.54 7.95 45.00 8.12 45.41 8.46C45.82 8.80 46.09 9.23 46.20 9.76ZM49.83 13.30L49.83 2.80L48.85 2.80L48.85 13.30ZM57.95 10.08C57.95 9.23 57.62 8.50 56.97 7.88C56.34 7.28 55.59 6.97 54.73 6.97C53.84 6.97 53.08 7.29 52.45 7.92C51.82 8.55 51.51 9.31 51.51 10.19C51.51 11.08 51.82 11.84 52.45 12.46C52.74 12.75 53.09 12.98 53.47 13.15C53.86 13.31 54.33 13.40 54.87 13.40C55.42 13.40 55.96 13.23 56.48 12.89C57.01 12.55 57.40 12.08 57.67 11.49L56.55 11.49C56.33 11.78 56.06 12.01 55.74 12.17C55.42 12.34 55.08 12.42 54.73 12.42C54.20 12.42 53.72 12.25 53.30 11.90C52.88 11.56 52.62 11.13 52.53 10.60L57.95 10.60ZM56.91 9.76L52.54 9.76C52.60 9.50 52.70 9.26 52.84 9.04C53.30 8.31 53.93 7.95 54.73 7.95C55.25 7.95 55.71 8.12 56.12 8.46C56.53 8.80 56.80 9.23 56.91 9.76ZM65.31 9.35C65.12 8.66 64.75 8.10 64.20 7.67C63.63 7.23 62.99 7.01 62.29 7.01C61.41 7.01 60.66 7.33 60.05 7.97C59.44 8.59 59.14 9.34 59.14 10.22C59.14 11.09 59.44 11.84 60.05 12.48C60.33 12.78 60.66 13.01 61.04 13.18C61.42 13.35 61.81 13.44 62.20 13.44C62.59 13.44 62.94 13.39 63.25 13.28C64.24 12.94 64.91 12.27 65.25 11.28L64.15 11.28C63.96 11.63 63.70 11.90 63.37 12.11C63.04 12.32 62.68 12.42 62.29 12.42C61.69 12.42 61.18 12.20 60.77 11.77C60.35 11.33 60.14 10.82 60.14 10.22C60.14 9.63 60.35 9.12 60.77 8.69C60.96 8.49 61.18 8.33 61.45 8.21C61.71 8.09 62.02 8.04 62.38 8.04C62.75 8.04 63.11 8.16 63.46 8.40C63.82 8.64 64.08 8.96 64.25 9.35ZM71.89 10.19C71.89 10.80 71.67 11.32 71.23 11.76C70.79 12.20 70.27 12.42 69.65 12.42C69.03 12.42 68.51 12.20 68.07 11.76C67.63 11.32 67.41 10.80 67.41 10.19C67.41 9.58 67.63 9.05 68.07 8.61C68.51 8.17 69.03 7.95 69.65 7.95C70.27 7.95 70.79 8.17 71.23 8.61C71.67 9.05 71.89 9.58 71.89 10.19ZM72.87 10.19C72.87 9.31 72.55 8.55 71.92 7.92C71.30 7.29 70.54 6.97 69.65 6.97C68.76 6.97 68.00 7.29 67.38 7.92C66.74 8.55 66.43 9.31 66.43 10.19C66.43 11.08 66.74 11.84 67.38 12.46C68.01 13.09 68.77 13.40 69.65 13.40C70.53 13.40 71.29 13.09 71.92 12.46C72.55 11.84 72.87 11.08 72.87 10.19ZM82.36 13.27L83.34 13.27L83.34 9.42C83.34 8.73 83.17 8.16 82.83 7.71C82.66 7.49 82.44 7.31 82.18 7.18C81.92 7.04 81.57 6.97 81.14 6.97C80.71 6.97 80.34 7.09 80.02 7.32C79.73 7.53 79.49 7.81 79.30 8.14C79.22 7.99 79.14 7.85 79.04 7.71C78.86 7.49 78.65 7.31 78.39 7.18C78.12 7.04 77.78 6.97 77.35 6.97C76.92 6.97 76.55 7.09 76.22 7.32C75.95 7.52 75.72 7.78 75.53 8.09L75.53 7.11L74.55 7.11L74.55 13.27L75.53 13.27L75.53 10.12C75.58 9.62 75.71 9.20 75.91 8.85C76.06 8.59 76.26 8.37 76.51 8.20C76.76 8.04 77.03 7.95 77.32 7.95C77.61 7.95 77.83 8.00 77.97 8.08C78.37 8.34 78.57 8.78 78.57 9.42L78.57 13.27L79.55 13.27L79.55 9.42C79.55 9.34 79.55 9.26 79.54 9.19C79.59 9.07 79.64 8.95 79.70 8.85C79.85 8.59 80.05 8.37 80.30 8.20C80.56 8.04 80.83 7.95 81.12 7.95C81.41 7.95 81.62 8.00 81.76 8.08C82.16 8.34 82.36 8.78 82.36 9.42Z"></path></g><!----><!----></svg>