<?xml version="1.0" encoding="UTF-8"?>
<!DOCTYPE svg PUBLIC "-//W3C//DTD SVG 1.1//EN" "http://www.w3.org/Graphics/SVG/1.1/DTD/svg11.dtd">
<!-- Creator: CorelDRAW -->
<svg xmlns="http://www.w3.org/2000/svg" xml:space="preserve" width="2.66666in" height="2.66666in" version="1.1" style="shape-rendering:geometricPrecision; text-rendering:geometricPrecision; image-rendering:optimizeQuality; fill-rule:evenodd; clip-rule:evenodd"
viewBox="0 0 2667 2667"
 xmlns:xlink="http://www.w3.org/1999/xlink">
 <defs>
  <style type="text/css">
   <![CDATA[
    .fil1 {fill:#333333}
    .fil0 {fill:#B9E7F5}
   ]]>
  </style>
 </defs>
 <g id="Layer_x0020_1">
  <metadata id="CorelCorpID_0Corel-Layer"/>
  <path class="fil0" d="M1694 216c445,0 806,361 806,806 0,423 -327,770 -742,803 -82,358 -402,626 -786,626 -444,0 -805,-361 -805,-806 0,-423 327,-771 742,-803 81,-358 402,-626 785,-626z"/>
  <g id="_215486456">
   <g>
    <g>
     <g id="_215487920">
      <path class="fil1" d="M792 1606c-8,0 -17,-6 -20,-15l-120 -329c-2,-6 -2,-12 1,-17 2,-5 7,-9 12,-11l306 -112c2,0 5,-1 8,-1l226 8 732 -266c11,-4 24,1 28,13l90 248c4,11 -1,24 -13,28l-1242 452c-3,1 -5,2 -8,2zm-92 -339l105 289 1202 -437 -75 -208 -716 260c-3,1 -5,2 -8,2l-226 -8 -282 102z"/>
     </g>
     <g id="_215488328">
      <path class="fil1" d="M610 1298c-9,0 -17,-5 -20,-14l-87 -239c-2,-5 -2,-11 1,-16 2,-6 6,-10 12,-12l1473 -536c7,-2 15,-1 21,4 6,5 9,12 8,20l-53 381c-2,12 -12,20 -24,18 -12,-1 -20,-12 -19,-24l48 -346 -1419 517 72 198 134 -49c11,-4 24,2 28,13 4,11 -2,24 -13,28l-154 56c-3,1 -5,1 -8,1z"/>
     </g>
     <g id="_215486984">
      <path class="fil1" d="M2018 1106c-6,0 -13,-2 -17,-8 -7,-9 -6,-22 3,-30l109 -91 -169 -202c-8,-10 -7,-23 3,-31 9,-8 22,-6 30,3l183 219c8,9 7,22 -2,30 0,0 -1,0 -1,0l-125 105c-4,4 -9,5 -14,5z"/>
     </g>
     <g id="_215486120">
      <path class="fil1" d="M1370 1575c-46,0 -87,-29 -102,-71l-30 -82c-2,-6 -2,-12 1,-17 2,-5 6,-9 12,-11l311 -113c11,-4 23,2 28,13l29 82c21,56 -8,118 -65,139l-147 53c-12,5 -24,7 -37,7zm-84 -148l22 62c10,25 34,43 62,43 7,0 15,-2 22,-4l148 -54c33,-12 51,-50 39,-84l-23 -61 -270 98z"/>
     </g>
     <g id="_215487296">
      <path class="fil1" d="M1224 2026c-9,0 -17,-5 -21,-14l-39 -109c-2,-6 -2,-11 0,-17 3,-5 7,-9 13,-11l300 -109 -79 -217c-2,-6 -1,-12 1,-17 3,-5 7,-9 12,-11l109 -40c12,-4 24,2 28,13l106 292c8,20 7,42 -2,61 -9,19 -25,34 -45,41 0,0 0,0 0,0l-376 137c-2,1 -5,1 -7,1zm-12 -118l25 69 355 -130c0,0 0,0 0,0 9,-3 16,-10 20,-18 4,-9 5,-19 2,-28l-99 -272 -68 25 79 217c4,11 -2,24 -13,28l-301 109z"/>
     </g>
     <g id="_215488352">
      <path class="fil1" d="M1097 2187c-9,0 -17,-6 -20,-15l-114 -311c-4,-11 2,-23 13,-27l82 -30c12,-5 24,-7 37,-7 46,0 87,29 102,72l54 147c21,57 -9,119 -65,140l-82 29c-2,1 -5,2 -7,2zm-85 -320l98 270 61 -22c34,-12 52,-50 39,-84l-53 -147c-10,-26 -34,-43 -62,-43 -7,0 -15,1 -22,4l-61 22z"/>
     </g>
    </g>
    <g id="_215488112">
     <path class="fil1" d="M1254 936c-9,0 -18,-6 -21,-14 -4,-12 2,-24 13,-28l523 -191c11,-4 24,2 28,13 4,12 -2,24 -13,28l-523 191c-2,0 -5,1 -7,1z"/>
    </g>
   </g>
  </g>
 </g>
</svg>
