<?xml version="1.0" encoding="UTF-8"?>
<!DOCTYPE svg PUBLIC "-//W3C//DTD SVG 1.1//EN" "http://www.w3.org/Graphics/SVG/1.1/DTD/svg11.dtd">
<!-- Creator: CorelDRAW -->
<svg xmlns="http://www.w3.org/2000/svg" xml:space="preserve" width="3in" height="3in" style="shape-rendering:geometricPrecision; text-rendering:geometricPrecision; image-rendering:optimizeQuality; fill-rule:evenodd; clip-rule:evenodd"
viewBox="0 0 3 3"
 xmlns:xlink="http://www.w3.org/1999/xlink">
 <defs>
  <style type="text/css">
   <![CDATA[
    .fil1 {fill:#FEFEFE}
    .fil0 {fill:#50508D}
   ]]>
  </style>
 </defs>
 <g id="Layer_x0020_1">
  <metadata id="CorelCorpID_0Corel-Layer"/>
  <circle class="fil0" cx="1.5" cy="1.5" r="1.5"/>
  <g id="_488551096">
   <g>
    <g id="_488548048">
     <path id="_460340888" class="fil1" d="M1.53054 1.75754l-0.29672 0c-0.00927953,0 -0.0175236,-0.00590945 -0.0205039,-0.0146969l-0.107295 -0.316409c-0.000759843,-0.00224016 -0.00114567,-0.00458661 -0.00114567,-0.00695276l0 -0.312232c0,-0.0119606 0.00968898,-0.0216496 0.0216496,-0.0216496l0.511307 -3.93701e-006c0.0119606,0 0.0216496,0.00969291 0.0216496,0.0216496l0 0.316425c0,0.0023937 -0.000393701,0.00477165 -0.00117323,0.0070315l-0.107299 0.312224c-0.003,0.00874409 -0.0112283,0.0146142 -0.0204685,0.0146142zm-0.281201 -0.0432992l0.265748 0 0.101098 -0.294189 0 -0.291157 -0.468012 0 0 0.287012 0.101165 0.298335z"/>
    </g>
    <g id="_488549224">
     <path id="_460341152" class="fil1" d="M1.60326 1.12889l-0.442157 0c-0.0119567,0 -0.0216496,-0.00969291 -0.0216496,-0.0216496l0 -0.324823c0,-0.0119567 0.00969291,-0.0216496 0.0216496,-0.0216496l0.103705 0c0.0119567,0 0.0216496,0.00969291 0.0216496,0.0216496l0 0.0387205 0.0353701 3.93701e-006c0.0119567,0 0.0216496,0.00968898 0.0216496,0.0216496l0 0.031378 0.0774016 0 0 -0.031378c0,-0.0119606 0.00969291,-0.0216496 0.0216496,-0.0216496l0.0353701 0 0 -0.0387244c0,-0.0119567 0.00968898,-0.0216496 0.0216457,-0.0216496l0.103717 0c0.0119567,0 0.0216496,0.00969291 0.0216496,0.0216496l0 0.324823c0,0.0119567 -0.00969291,0.0216496 -0.0216496,0.0216496zm-0.420508 -0.0432992l0.398858 0 0 -0.281524 -0.0604173 0 0 0.0387205c0,0.0119567 -0.00969291,0.0216496 -0.0216496,0.0216496l-0.0353661 0 0 0.0313819c0,0.0119567 -0.00969291,0.0216496 -0.0216496,0.0216496l-0.120701 0c-0.0119567,0 -0.0216496,-0.00969291 -0.0216496,-0.0216496l0 -0.0313819 -0.0353701 0c-0.0119567,0 -0.0216496,-0.00969291 -0.0216496,-0.0216496l0 -0.0387205 -0.0604055 0 0 0.281524z"/>
    </g>
    <g id="_488550160">
     <path id="_460341128" class="fil1" d="M1.44252 0.91748l-0.120701 0c-0.0119567,0 -0.0216496,-0.00969291 -0.0216496,-0.0216496l0 -0.0313858 -0.0353661 0c-0.0119567,0 -0.0216496,-0.00969291 -0.0216496,-0.0216496l0 -0.17378c0,-0.0119567 0.00969291,-0.0216496 0.0216496,-0.0216496l0.234732 0c0.0119606,0 0.0216496,0.00969291 0.0216496,0.0216496l0 0.173783c0,0.0119567 -0.00968898,0.0216457 -0.0216496,0.0216457l-0.0353661 0 0 0.0313858c0,0.0119528 -0.00969291,0.0216496 -0.0216496,0.0216496zm-0.0990512 -0.0432992l0.0774016 0 0 -0.0313858c0,-0.0119567 0.00969291,-0.0216496 0.0216496,-0.0216496l0.0353701 0 0 -0.13048 -0.191437 0 0 0.130484 0.0353661 -3.93701e-006c0.0119567,0 0.0216496,0.00969291 0.0216496,0.0216496l0 0.0313858z"/>
    </g>
    <g id="_488548696">
     <path id="_460340960" class="fil1" d="M1.76966 2.35263l-0.387465 0 -0.00291732 -3.14961e-005c-0.000200787,-3.93701e-006 -0.000417323,-7.87402e-006 -0.000622047,-1.5748e-005l-0.00254724 -9.84252e-005c-0.000216535,-7.87402e-006 -0.000437008,-1.9685e-005 -0.000653543,-3.54331e-005l-0.00248425 -0.00015748c-0.00023622,-1.5748e-005 -0.000464567,-3.14961e-005 -0.000692913,-5.51181e-005l-0.00240945 -0.000212598c-0.000248031,-1.9685e-005 -0.000492126,-4.33071e-005 -0.00073622,-7.08661e-005l-0.00238583 -0.000271654c-0.000279528,-3.14961e-005 -0.000559055,-6.69291e-005 -0.000838583,-0.000102362l-0.00257087 -0.000370079c-0.000145669,-1.9685e-005 -0.000291339,-4.33071e-005 -0.000437008,-7.08661e-005l-0.00256299 -0.000425197c-0.000188976,-2.75591e-005 -0.000377953,-6.69291e-005 -0.000566929,-9.84252e-005l-0.00223622 -0.000429134c-0.000287402,-5.11811e-005 -0.000582677,-0.000110236 -0.000870079,-0.000177165l-0.00250787 -0.000551181c-0.000169291,-3.54331e-005 -0.000338583,-7.48031e-005 -0.000503937,-0.00011811l-0.00217717 -0.000531496c-0.000295276,-7.08661e-005 -0.000586614,-0.000141732 -0.000877953,-0.000220472l-0.00212992 -0.000586614c-0.000295276,-7.08661e-005 -0.000586614,-0.00015748 -0.000877953,-0.000244094l-0.00209055 -0.000629921c-0.00026378,-6.69291e-005 -0.000527559,-0.000153543 -0.000787402,-0.00023622l-0.00241339 -0.000783465c-0.000188976,-5.90551e-005 -0.000370079,-0.000122047 -0.000559055,-0.000188976l-0.00208268 -0.000740157c-0.000271654,-9.05512e-005 -0.000547244,-0.000192913 -0.000814961,-0.000291339l-0.00235827 -0.000901575c-0.000181102,-7.08661e-005 -0.000358268,-0.000141732 -0.000535433,-0.000212598l-0.00201181 -0.000830709c-0.000259843,-0.000102362 -0.000523622,-0.000208661 -0.000783465,-0.000330709l-0.00230709 -0.00101575c-0.00015748,-7.08661e-005 -0.000318898,-0.000141732 -0.000476378,-0.000212598l-0.00228346 -0.00106693c-0.000141732,-7.08661e-005 -0.000287402,-0.000137795 -0.000425197,-0.000212598l-0.00191339 -0.000944882c-0.000307087,-0.000149606 -0.00061811,-0.00030315 -0.000917323,-0.000464567l-0.0018622 -0.000996063c-0.000248031,-0.000125984 -0.0005,-0.000259843 -0.000748031,-0.000397638l-0.0021811 -0.00122047c-0.000220472,-0.000125984 -0.000440945,-0.000255906 -0.000661417,-0.000385827l-0.00158268 -0.000937008c-0.000283465,-0.000161417 -0.000566929,-0.000334646 -0.000846457,-0.000503937l-0.00176378 -0.0011063c-0.000287402,-0.000173228 -0.000566929,-0.000350394 -0.000850394,-0.000535433l-0.0017126 -0.00114567c-0.000255906,-0.000161417 -0.000503937,-0.000326772 -0.000755906,-0.0005l-0.00204724 -0.00142913c-0.000114173,-7.87402e-005 -0.000232283,-0.000165354 -0.000350394,-0.000248031l-0.00201575 -0.00146457c-0.000232283,-0.000165354 -0.00046063,-0.00034252 -0.000685039,-0.000515748l-0.00174016 -0.00133071c-0.000216535,-0.000169291 -0.000433071,-0.00034252 -0.000641732,-0.000511811l-0.0017126 -0.00137795c-0.000145669,-0.00011811 -0.000287402,-0.000232283 -0.000429134,-0.000354331l-0.00185827 -0.0015748c-0.000141732,-0.00011811 -0.000279528,-0.000240157 -0.00042126,-0.000366142l-0.00186614 -0.00165354c-0.000122047,-0.000110236 -0.000244094,-0.000220472 -0.000370079,-0.000334646l-0.0018189 -0.00169685c-0.000133858,-0.000122047 -0.00026378,-0.000248031 -0.000393701,-0.000370079l-0.00143307 -0.00140551c-0.000244094,-0.000228346 -0.000484252,-0.000464567 -0.000716535,-0.000700787l-0.00174409 -0.00178346c-0.00011811,-0.000125984 -0.000240157,-0.000251969 -0.000354331,-0.000377953l-0.00169685 -0.00182677c-0.000110236,-0.00011811 -0.000220472,-0.000240157 -0.000326772,-0.000358268l-0.00165748 -0.00186614c-0.000153543,-0.000173228 -0.00030315,-0.000346457 -0.000452756,-0.000527559l-0.00151181 -0.00178346c-0.000106299,-0.000125984 -0.000212598,-0.000251969 -0.000314961,-0.00038189l-0.00156693 -0.00194094c-0.000110236,-0.000137795 -0.000216535,-0.000279528 -0.000326772,-0.000413386l-0.00151969 -0.00198819c-9.84252e-005,-0.000125984 -0.000192913,-0.000255906 -0.000287402,-0.00038189l-0.00147638 -0.00201181c-0.000114173,-0.000153543 -0.000228346,-0.000314961 -0.000334646,-0.000472441l-0.00112598 -0.00161811c-0.000200787,-0.000279528 -0.000397638,-0.000562992 -0.000586614,-0.000854331l-0.00137795 -0.00209055c-8.66142e-005,-0.000133858 -0.000177165,-0.000267717 -0.000259843,-0.000401575l-0.00133071 -0.00212205c-0.000110236,-0.000173228 -0.000212598,-0.000346457 -0.000314961,-0.000519685l-0.00127165 -0.00216142c-7.08661e-005,-0.000122047 -0.000141732,-0.000244094 -0.000212598,-0.000366142l-0.00122835 -0.0021811c-9.05512e-005,-0.000161417 -0.000177165,-0.000318898 -0.00026378,-0.000484252l-0.00117717 -0.00222835c-8.26772e-005,-0.00015748 -0.000165354,-0.000314961 -0.000248031,-0.000476378l-0.00111811 -0.00224803c-8.26772e-005,-0.00015748 -0.00015748,-0.000322835 -0.000232283,-0.000484252l-0.00107087 -0.00229134c-7.48031e-005,-0.00015748 -0.000149606,-0.000322835 -0.000220472,-0.000484252l-0.00101575 -0.00231102c-6.69291e-005,-0.00015748 -0.000133858,-0.000311024 -0.00019685,-0.000464567l-0.000956693 -0.00233465c-6.29921e-005,-0.000153543 -0.000129921,-0.000311024 -0.000188976,-0.000468504l-0.000905512 -0.00237008c-7.08661e-005,-0.000177165 -0.000133858,-0.000350394 -0.00019685,-0.000531496l-0.000850394 -0.00239764c-6.69291e-005,-0.000188976 -0.000129921,-0.000370079 -0.000188976,-0.000562992l-0.000783465 -0.0024252c-4.72441e-005,-0.000141732 -9.05512e-005,-0.000283465 -0.000133858,-0.000425197l-0.00073622 -0.00244094c-5.51181e-005,-0.000181102 -0.000106299,-0.000358268 -0.000153543,-0.000543307l-0.000673228 -0.0024685c-5.11811e-005,-0.000177165 -9.84252e-005,-0.000350394 -0.000141732,-0.000531496l-0.000610236 -0.00249606c-4.33071e-005,-0.000177165 -8.26772e-005,-0.000350394 -0.000122047,-0.000523622l-0.000551181 -0.00251575c-3.93701e-005,-0.000185039 -7.87402e-005,-0.000370079 -0.00011811,-0.000555118l-0.000484252 -0.00254331c-3.14961e-005,-0.000177165 -6.69291e-005,-0.000358268 -9.84252e-005,-0.000543307l-0.00042126 -0.00256693c-2.3622e-005,-0.000153543 -5.11811e-005,-0.000311024 -7.08661e-005,-0.000468504l-0.000370079 -0.00257874c-3.14961e-005,-0.000204724 -5.51181e-005,-0.000409449 -8.26772e-005,-0.000614173l-0.000295276 -0.00259449c-2.3622e-005,-0.000232283 -4.72441e-005,-0.000464567 -6.69291e-005,-0.000692913l-0.000220472 -0.00242913c-1.5748e-005,-0.000185039 -3.14961e-005,-0.000374016 -3.93701e-005,-0.000562992l-0.000173228 -0.00263386c-7.87402e-006,-0.000185039 -1.9685e-005,-0.000366142 -2.3622e-005,-0.000551181l-0.000106299 -0.00265354c-7.87402e-006,-0.000279528 -1.5748e-005,-0.000555118 -1.5748e-005,-0.000834646l-2.75591e-005 -0.00242126 0 -0.491543c0,-0.0119567 0.00968898,-0.0216496 0.0216457,-0.0216496l0.207622 -3.93701e-006c0.0119606,0 0.0216496,0.00968898 0.0216496,0.0216457l0 0.365831 0.26202 0c0.0691811,0 0.125457,0.0562756 0.125457,0.125457 0,0.0691772 -0.0562913,0.125445 -0.125469,0.125445zm-0.389571 -0.0433228l0.00232283 2.3622e-005 0.387248 0c0.0453031,0 0.0821614,-0.0368543 0.0821614,-0.0821575 0,-0.0453031 -0.0368583,-0.0821575 -0.0821614,-0.0821575l-0.283665 -3.93701e-006c-0.0119567,0 -0.0216496,-0.00968898 -0.0216496,-0.0216457l0 -0.365831 -0.164319 0 0 0.469638 0.000433071 0.00841732 0.00124409 0.00808268 0.0020315 0.00783465 0.00276378 0.00751575 0.00347244 0.00717717 0.00398031 0.00655906c3.93701e-006,1.5748e-005 1.5748e-005,2.75591e-005 2.3622e-005,3.54331e-005l0.00486614 0.00651575 0.00517717 0.0057126 0.0060315 0.0055 0.0062126 0.00465354 0.00676772 0.00414173 0.00719685 0.00349606 0.00747244 0.00276378 0.00790945 0.00206299 0.0081378 0.00125591 0.00634252 0.000409449z"/>
    </g>
   </g>
  </g>
 </g>
</svg>
